<?xml version="1.0" encoding="UTF-8" standalone="no"?>
<!-- Created with svg_stack (http://github.com/astraw/svg_stack) -->

<svg
   version="1.1"
   width="60"
   height="60"
   id="svg16"
   sodipodi:docname="rssblue.svg"
   inkscape:version="1.2 (dc2aedaf03, 2022-05-15)"
   xmlns:inkscape="http://www.inkscape.org/namespaces/inkscape"
   xmlns:sodipodi="http://sodipodi.sourceforge.net/DTD/sodipodi-0.dtd"
   xmlns="http://www.w3.org/2000/svg"
   xmlns:svg="http://www.w3.org/2000/svg">
  <sodipodi:namedview
     id="namedview18"
     pagecolor="#ffffff"
     bordercolor="#666666"
     borderopacity="1.0"
     inkscape:showpageshadow="2"
     inkscape:pageopacity="0.0"
     inkscape:pagecheckerboard="0"
     inkscape:deskcolor="#d1d1d1"
     showgrid="false"
     inkscape:zoom="8.4271995"
     inkscape:cx="35.539683"
     inkscape:cy="27.529905"
     inkscape:window-width="1920"
     inkscape:window-height="1053"
     inkscape:window-x="0"
     inkscape:window-y="27"
     inkscape:window-maximized="1"
     inkscape:current-layer="svg16" />
  <defs
     id="defs3">
    <rect
       x="254.33018"
       y="23.064129"
       width="211.88646"
       height="215.61278"
       id="id1:rect3885" />
  </defs>
  <g
     id="id0:id0"
     transform="matrix(8.3333333,0,0,8.3333333,5.0000001,5.0000001)">
    <title
       id="id0:title2">RSS feed icon</title>
    <style
       type="text/css"
       id="id0:style4">
    .button {stroke: none; fill: orange;}
    .symbol {stroke: none; fill: white;}
  </style>
    <path
       id="id0:circle8"
       style="fill:#08498a"
       class="symbol"
       d="M 2,5 A 1,1 0 0 1 1,6 1,1 0 0 1 0,5 1,1 0 0 1 1,4 1,1 0 0 1 2,5 Z" />
    <path
       class="symbol"
       d="M 0,3 A 3,3 0 0 1 3,6 H 4 A 4,4 0 0 0 0,2 Z"
       id="id0:path10"
       style="fill:#0f5da9;fill-opacity:1" />
    <path
       class="symbol"
       d="M 0,1 A 5,5 0 0 1 5,6 H 6 A 6,6 0 0 0 0,0 Z"
       id="id0:path12"
       style="fill:#1871c9;fill-opacity:1" />
  </g>
</svg>
